<?xml version="1.0" encoding="UTF-8"?>
<!DOCTYPE svg PUBLIC "-//W3C//DTD SVG 1.1//EN" "http://www.w3.org/Graphics/SVG/1.1/DTD/svg11.dtd">
<!-- Creator: CorelDRAW X8 -->
<svg xmlns="http://www.w3.org/2000/svg" xml:space="preserve" width="100px" height="41px" version="1.1" style="shape-rendering:geometricPrecision; text-rendering:geometricPrecision; image-rendering:optimizeQuality; fill-rule:evenodd; clip-rule:evenodd"
viewBox="0 0 100001 41001"
 xmlns:xlink="http://www.w3.org/1999/xlink">
 <defs>
  <style type="text/css">
   <![CDATA[
    .fil0 {fill:#FCA1A7;fill-rule:nonzero}
   ]]>
  </style>
 </defs>
 <g id="Слой_x0020_1">
  <metadata id="CorelCorpID_0Corel-Layer"/>
  <path class="fil0" d="M10196 24854c255,242 578,405 935,518 2157,2263 4597,4290 6930,6360 2566,2278 5303,4360 8291,6050 2456,1389 5249,2500 8025,3009 1416,260 4977,580 5818,-1101 971,-1946 -852,-3436 -2241,-4597 -2516,-2104 -5559,-3759 -8408,-5353 -2909,-1627 -5922,-3034 -9098,-4058 3972,67 7971,-13 11959,-188 2876,2462 6523,4034 9755,5986 3250,1965 6684,3583 9898,5615 1877,1187 6169,4711 8437,2745 1073,-934 471,-3246 35,-4284 -1094,-2628 -3192,-4266 -5716,-5453 -2721,-1281 -5749,-1835 -8685,-2356 -3355,-590 -6571,-1623 -9844,-2449 1430,-83 2857,-176 4279,-276 4311,-303 8607,-800 12864,-1536 -13,170 48,348 222,499 4363,3845 10199,6674 15505,8994 1935,849 9629,3638 10627,-162 998,-3803 -6334,-7036 -8813,-7969 -2772,-1043 -5724,-1855 -8672,-2219 -895,-111 -1809,-270 -2725,-386 825,-193 1648,-393 2469,-608 3964,-1038 9219,-1843 13141,-4067 5977,-399 12242,-1895 17858,-3699 2434,-782 4676,-1717 6199,-3855 1256,-1763 874,-4536 -552,-6084 -3202,-3478 -7672,-1480 -10839,995 -3443,2693 -12628,10924 -13648,11464 -248,54 -1082,367 -1126,544 -3619,1596 -8055,2245 -11448,3137 -5047,1329 -10208,2171 -15396,2731l189 -205c910,-242 1825,-486 2653,-907 2765,-1406 5328,-3158 8022,-4683 2363,-1339 4387,-3194 6656,-4670 1723,-1119 3484,-2303 4467,-4163 184,-350 59,-690 -243,-914 -2879,-2125 -8379,3202 -10364,4684 -2559,1914 -10164,7760 -7673,5760 1676,-1343 -3649,2832 -5103,4514 -651,212 -1284,474 -1869,904 -801,68 -1605,134 -2409,194 -3941,288 -7910,447 -11875,525 825,-379 1597,-915 2374,-1384 1779,-1070 3605,-2068 5392,-3125 2646,-1568 5261,-3181 7892,-4772 3157,-1907 8354,-4609 9246,-8554 1348,-5972 -8535,-898 -10064,6 -3642,2149 -6881,4650 -9935,7571 -3259,3116 -5615,6782 -8464,10229l-55 82c-1701,13 -3400,14 -5097,5 -3486,-19 -6961,-268 -10374,-997 -1482,-315 -2873,-959 -4344,-1273 -110,-24 -220,-49 -329,-72 221,-216 440,-435 661,-655 626,-100 1421,-181 1648,-261 1589,-551 3074,-1307 4538,-2128 3397,-1905 6643,-4234 9878,-6405 3193,-2138 6233,-4504 8866,-7312 919,-978 2813,-2494 1930,-4051 -953,-1681 -4048,-49 -5238,405 -2946,1121 -5690,2789 -8199,4686 -5669,4292 -10322,9689 -15415,14611 -236,231 -294,500 -240,745 -793,-203 -1578,-444 -2299,-756 -800,-345 -1504,769 -697,1203 2243,1198 4854,1817 7269,2566 842,264 1700,476 2569,650z"/>
 </g>
</svg>
