<?xml version="1.0" encoding="UTF-8"?>
<!DOCTYPE svg PUBLIC "-//W3C//DTD SVG 1.1//EN" "http://www.w3.org/Graphics/SVG/1.1/DTD/svg11.dtd">
<!-- Creator: CorelDRAW X8 -->
<svg xmlns="http://www.w3.org/2000/svg" xml:space="preserve" width="100px" height="41px" version="1.1" style="shape-rendering:geometricPrecision; text-rendering:geometricPrecision; image-rendering:optimizeQuality; fill-rule:evenodd; clip-rule:evenodd"
viewBox="0 0 100001 40999"
 xmlns:xlink="http://www.w3.org/1999/xlink">
 <defs>
  <style type="text/css">
   <![CDATA[
    .fil0 {fill:#FCA1A7;fill-rule:nonzero}
   ]]>
  </style>
 </defs>
 <g id="Слой_x0020_1">
  <metadata id="CorelCorpID_0Corel-Layer"/>
  <path class="fil0" d="M89805 24852c-255,242 -578,405 -936,519 -2157,2262 -4596,4289 -6928,6360 -2567,2277 -5305,4360 -8293,6049 -2455,1390 -5247,2499 -8024,3009 -1416,261 -4977,579 -5818,-1100 -971,-1945 852,-3436 2241,-4598 2516,-2104 5559,-3757 8407,-5352 2910,-1627 5923,-3035 9099,-4059 -3972,68 -7972,-13 -11959,-188 -2876,2463 -6523,4036 -9755,5986 -3250,1965 -6684,3584 -9898,5615 -1876,1187 -6169,4711 -8436,2745 -1075,-935 -472,-3245 -37,-4284 1095,-2628 3194,-4265 5718,-5453 2720,-1281 5748,-1833 8685,-2354 3354,-592 6570,-1624 9843,-2451 -1430,-83 -2857,-175 -4279,-275 -4311,-304 -8607,-800 -12864,-1536 13,170 -48,347 -222,500 -4363,3843 -10200,6672 -15505,8992 -1934,849 -9629,3637 -10627,-162 -997,-3802 6333,-7036 8812,-7968 2772,-1044 5725,-1855 8672,-2218 895,-112 1810,-272 2726,-387 -824,-193 -1649,-394 -2468,-609 -3965,-1038 -9220,-1842 -13141,-4066 -5977,-400 -12243,-1896 -17859,-3700 -2434,-780 -4676,-1717 -6198,-3854 -1257,-1763 -874,-4536 551,-6085 3202,-3477 7672,-1480 10840,997 3442,2693 12627,10922 13648,11463 247,53 1082,366 1126,543 3619,1597 8055,2246 11446,3138 5048,1328 10209,2170 15397,2731l-189 -205c-910,-242 -1825,-486 -2653,-907 -2765,-1406 -5328,-3159 -8022,-4684 -2362,-1339 -4387,-3193 -6657,-4668 -1722,-1119 -3483,-2305 -4465,-4163 -186,-350 -60,-691 243,-914 2878,-2126 8379,3202 10363,4683 2559,1914 10165,7760 7674,5761 -1676,-1345 3648,2831 5102,4514 651,210 1284,472 1869,902 801,70 1605,135 2409,194 3943,289 7910,449 11876,525 -827,-379 -1597,-915 -2375,-1383 -1779,-1071 -3605,-2068 -5392,-3126 -2646,-1566 -5261,-3181 -7892,-4771 -3157,-1907 -8354,-4608 -9246,-8553 -1349,-5973 8535,-899 10064,6 3642,2148 6880,4649 9935,7569 3258,3117 5615,6782 8464,10230l55 82c1701,13 3401,14 5097,4 3485,-17 6960,-267 10373,-995 1483,-317 2873,-961 4344,-1275 111,-23 221,-47 330,-72 -221,-216 -441,-435 -661,-653 -626,-100 -1421,-183 -1649,-262 -1588,-552 -3072,-1308 -4537,-2127 -3398,-1906 -6644,-4235 -9878,-6406 -3193,-2137 -6232,-4503 -8865,-7311 -920,-979 -2815,-2494 -1931,-4052 953,-1680 4048,-49 5238,406 2946,1120 5690,2789 8198,4686 5670,4292 10323,9688 15415,14610 236,232 294,500 241,745 792,-204 1578,-445 2299,-756 800,-346 1504,769 697,1203 -2243,1199 -4854,1816 -7268,2566 -842,264 -1701,476 -2570,649z"/>
 </g>
</svg>
